<svg width="60" height="40" viewBox="0 0 60 40" fill="none" xmlns="http://www.w3.org/2000/svg">
<g clip-path="url(#clip0_154_31949)">
<path d="M3.3157 18.9322C1.10524 16.9711 0.000976562 13.6689 0.000976562 9.0279C0.000976562 4.47623 1.10524 0.716524 3.3157 -2.25022C5.52521 -5.21636 8.57484 -7.15085 12.465 -8.05431C16.3539 -8.95746 19.4035 -8.43922 21.6143 -6.4996C23.8235 -4.55936 24.9291 -1.29119 24.9291 3.30512C24.9291 7.94581 23.8235 11.7496 21.6143 14.7156C19.4039 17.6818 16.3539 19.6169 12.465 20.5197C8.57484 21.4235 5.52521 20.8947 3.3157 18.9322ZM14.6857 11.2197C15.1497 10.0294 15.382 8.13054 15.382 5.52202C15.382 3.00283 15.1384 1.25886 14.6523 0.288236C14.1656 -0.681069 13.4363 -1.05342 12.4647 -0.827917C11.4472 -0.591781 10.7076 0.122117 10.2436 1.3122C9.77936 2.50351 9.5474 4.35802 9.5474 6.8772C9.5474 9.48573 9.77936 11.2766 10.2436 12.2514C10.7076 13.2271 11.4472 13.5963 12.4647 13.3598C13.4809 13.124 14.2215 12.4111 14.6857 11.2197ZM20.3212 38.2533C19.5475 38.9184 18.7632 39.3445 17.9677 39.5291C16.9068 39.7757 15.9786 39.5932 15.1831 38.9825C14.3876 38.3718 13.9895 37.4922 13.9895 36.3425C13.9895 35.326 14.2983 34.2156 14.9177 33.0111L37.6582 -11.5184C38.2316 -12.6233 38.9063 -13.5091 39.68 -14.1758C40.453 -14.8412 41.2382 -15.2669 42.0337 -15.4516C43.1377 -15.708 44.0768 -15.539 44.8514 -14.9459C45.6238 -14.3515 46.011 -13.4584 46.011 -12.2651C46.011 -11.2476 45.7016 -10.1378 45.0828 -8.93336L22.3433 35.5961C21.7682 36.702 21.0938 37.5867 20.3212 38.2533ZM38.3875 30.2123C36.1767 28.2512 35.0724 24.9493 35.0724 20.3083C35.0724 15.7566 36.177 11.9966 38.3875 9.03019C40.5969 6.06405 43.6466 4.12956 47.5368 3.2261C51.4256 2.32295 54.4749 2.84118 56.6852 4.78081C58.8951 6.72074 60.0005 9.98922 60.0005 14.5855C60.0005 19.2262 58.8951 23.0303 56.6852 25.9964C54.4749 28.9625 51.4256 30.8976 47.5368 31.8004C43.6466 32.7036 40.5966 32.1751 38.3875 30.2123ZM49.7572 22.5001C50.2208 21.3098 50.4531 19.4109 50.4531 16.8027C50.4531 14.2832 50.2095 12.528 49.7238 11.5355C49.2367 10.5441 48.5077 10.1605 47.5361 10.386C46.5183 10.6221 45.779 11.3361 45.3147 12.5264C44.8511 13.7181 44.6188 15.5951 44.6188 18.1576C44.6188 20.7658 44.8511 22.557 45.3147 23.5321C45.779 24.5078 46.5183 24.8767 47.5361 24.6403C48.5523 24.4041 49.2929 23.6915 49.7572 22.5001Z" fill="url(#paint0_linear_154_31949)" fill-opacity="0.5"/>
</g>
<defs>
<linearGradient id="paint0_linear_154_31949" x1="30.0007" y1="-15.5676" x2="30.0007" y2="39.6354" gradientUnits="userSpaceOnUse">
<stop stop-color="white"/>
<stop offset="1" stop-color="white" stop-opacity="0"/>
</linearGradient>
<clipPath id="clip0_154_31949">
<rect width="60" height="55.9322" fill="white" transform="translate(0 -15.9323)"/>
</clipPath>
</defs>
</svg>
