<svg id="Layer_1" enable-background="new 0 0 512 512" height="512" viewBox="0 0 512 512" width="512" xmlns="http://www.w3.org/2000/svg"><path d="m479.663 494.54-40.248-241.668c-5.81-34.808-35.647-60.072-70.948-60.072-27.166 0-49.267-22.101-49.267-49.267v-80.333c0-34.848-28.351-63.2-63.2-63.2s-63.2 28.352-63.2 63.2v80.333c0 27.166-22.101 49.267-49.267 49.267-35.301 0-65.139 25.264-70.951 60.091l-40.245 241.649c-.723 4.349.504 8.795 3.354 12.158 2.851 3.363 7.035 5.302 11.443 5.302h417.732c4.408 0 8.593-1.939 11.443-5.302s4.077-7.809 3.354-12.158zm-377.487-236.729c3.386-20.287 20.779-35.011 41.357-35.011 43.708 0 79.267-35.559 79.267-79.267v-80.333c0-18.307 14.894-33.2 33.2-33.2s33.2 14.894 33.2 33.2v80.333c0 43.708 35.559 79.267 79.267 79.267 20.578 0 37.972 14.724 41.354 34.992 1.188 7.176 2.439 14.723 3.697 22.308-19.397-14.884-43.259-23.032-67.785-23.032h-179.465c-24.526 0-48.388 8.149-67.785 23.033 1.256-7.58 2.506-15.121 3.693-22.29zm-16.145 97.261c6.538-39.405 40.282-68.005 80.236-68.005h179.465c39.954 0 73.698 28.6 80.242 68.04 3.957 23.512 7.917 47.183 10.497 62.627h-360.943c2.58-15.448 6.542-39.127 10.503-62.662zm-21.198 126.928 5.696-34.267h370.941l5.697 34.267z"/></svg>