<!-- Generated by IcoMoon.io -->
<svg version="1.1" xmlns="http://www.w3.org/2000/svg" width="32" height="32" viewBox="0 0 32 32">
<title>toilet-paper</title>
<path d="M30.336 5.216c0-1.152-0.8-2.752-4.576-3.936-2.624-0.832-6.080-1.28-9.76-1.28s-7.136 0.448-9.76 1.28c-3.776 1.184-4.576 2.784-4.576 3.936 0 0 0 0 0 0v21.504c0 3.456 7.2 5.28 14.336 5.28s14.336-1.824 14.336-5.28v-21.504c0 0 0 0 0 0zM28.448 26.72c0 0.576-0.992 1.44-3.264 2.176-0.416 0.128-0.864 0.256-1.344 0.384v-1.344c0-0.544-0.416-0.96-0.96-0.96s-0.928 0.416-0.928 0.96v1.728c-1.824 0.288-3.84 0.448-5.952 0.448-3.488 0-6.752-0.416-9.184-1.216-2.24-0.736-3.264-1.6-3.264-2.176v-18.752c2.592 1.632 7.552 2.496 12.448 2.496 2.048 0 4.064-0.128 5.952-0.416v1.376c0 0.544 0.416 0.96 0.928 0.96s0.96-0.416 0.96-0.96v-1.728c1.856-0.416 3.456-0.992 4.608-1.728v18.752zM25.184 7.36c-2.432 0.8-5.696 1.216-9.184 1.216s-6.752-0.416-9.184-1.216c-2.24-0.736-3.264-1.6-3.264-2.144s0.992-1.44 3.264-2.144c2.432-0.768 5.696-1.184 9.184-1.184s6.752 0.416 9.184 1.184c2.272 0.704 3.264 1.6 3.264 2.144s-0.992 1.408-3.264 2.144zM19.936 3.328c-1.056-0.256-2.464-0.416-3.936-0.416s-2.88 0.16-3.936 0.416c-1.472 0.384-2.208 1.024-2.208 1.888s0.736 1.504 2.208 1.92c1.056 0.256 2.464 0.416 3.936 0.416s2.88-0.16 3.936-0.416c1.472-0.416 2.208-1.056 2.208-1.92s-0.736-1.504-2.208-1.888zM16 5.664c-1.696 0-2.976-0.224-3.712-0.448 0.736-0.192 2.016-0.416 3.712-0.416 1.728 0 2.976 0.224 3.712 0.416-0.736 0.224-1.984 0.448-3.712 0.448zM22.88 14.304c-0.512 0-0.928 0.416-0.928 0.96v2.496c0 0.544 0.416 0.96 0.928 0.96s0.96-0.416 0.96-0.96v-2.496c0-0.544-0.416-0.96-0.96-0.96zM22.88 20.64c-0.512 0-0.928 0.416-0.928 0.96v2.496c0 0.544 0.416 0.96 0.928 0.96s0.96-0.416 0.96-0.96v-2.496c0-0.544-0.416-0.96-0.96-0.96z"></path>
</svg>
