<!-- Generated by IcoMoon.io -->
<svg version="1.1" xmlns="http://www.w3.org/2000/svg" width="32" height="32" viewBox="0 0 32 32">
<title>wheat</title>
<path d="M24.544 19.616h-4.224c-1.696 0-3.232 0.704-4.352 1.792v-3.584h2.72c3.072 0 5.568-2.496 5.568-5.568 0-0.512-0.416-0.928-0.96-0.928h-3.648c-1.44 0-2.72 0.544-3.68 1.408v-2.272l0.928-0.928c1.056-1.088 1.664-2.528 1.664-4.032 0-1.536-0.608-2.944-1.664-4.032l-1.216-1.184c-0.352-0.384-0.96-0.384-1.312 0l-1.216 1.184c-1.088 1.088-1.664 2.496-1.664 4.032 0 1.504 0.576 2.944 1.664 4.032l0.928 0.928v2.272c-0.992-0.864-2.272-1.408-3.68-1.408h-3.68c-0.512 0-0.928 0.416-0.928 0.928 0 3.072 2.496 5.568 5.536 5.568h2.752v3.584c-1.12-1.088-2.656-1.792-4.352-1.792h-4.224c-0.512 0-0.928 0.416-0.928 0.96 0 3.424 2.784 6.208 6.208 6.208h3.296v2.304c0 0.512 0.416 0.928 0.928 0.928s0.96-0.416 0.96-0.928v-2.304h3.264c3.456 0 6.24-2.784 6.24-6.208 0-0.544-0.416-0.96-0.928-0.96zM19.648 13.216h2.592c-0.416 1.568-1.856 2.72-3.552 2.72h-2.624c0.416-1.568 1.856-2.72 3.584-2.72zM11.328 15.936c-1.696 0-3.136-1.152-3.552-2.72h2.624c1.696 0 3.136 1.152 3.552 2.72h-2.624zM10.784 24.928c-2.080 0-3.808-1.472-4.256-3.424h3.2c2.080 0 3.808 1.472 4.256 3.424h-3.2zM15.008 8.608c-0.288 0-1.664-1.28-1.664-3.104 0-1.76 1.056-2.624 1.664-3.232 0.608 0.576 1.664 1.472 1.664 3.232 0 1.792-1.344 3.104-1.664 3.104zM19.232 24.928h-3.168c0.416-1.952 2.176-3.424 4.256-3.424h3.168c-0.416 1.952-2.176 3.424-4.256 3.424z"></path>
</svg>
